Geometry.Tolerance = 1.1809317000553631e-05;
// Define points
p0 = newp; Point(p0) = {0.11593795604767781, 0.48650248051131345, 0.050237141025907775, 0.01 };
p1 = newp; Point(p1) = {0.1146788736, 0.4862385368, 0.04320895601668986, 0.01 };
p2 = newp; Point(p2) = {0.1146788736, 0.4862385368, 0.0, 0.01 };
p3 = newp; Point(p3) = {0.11538958203409658, 0.4863875238834934, -0.004211398118206113, 0.01 };
p4 = newp; Point(p4) = {0.1352762257927908, 0.49055639667567547, -0.05472970414355244, 0.05445142187319948 };
p5 = newp; Point(p5) = {0.1725703260843739, 0.4983744257961761, -0.0936268229073567, 0.05445142187319948 };
p6 = newp; Point(p6) = {0.22159419421131343, 0.5086513871820093, -0.11498102068108944, 0.05445142187319958 };
p7 = newp; Point(p7) = {0.27488439065375403, 0.5198227066230692, -0.11554131442998454, 0.05445142187319948 };
p8 = newp; Point(p8) = {0.3243279660801677, 0.530187652002717, -0.09522240450984837, 0.05445142187319948 };
p9 = newp; Point(p9) = {0.36239758433901037, 0.5381682543453654, -0.057117660764644515, 0.05445142187319948 };
p10 = newp; Point(p10) = {0.3832974911523222, 0.5425495392886865, -0.0070281850092179, 0.01 };
p11 = newp; Point(p11) = {0.3845565736, 0.542813483, 0.0, 0.01 };
p12 = newp; Point(p12) = {0.3845565736, 0.542813483, 0.04320895601668986, 0.01 };
p13 = newp; Point(p13) = {0.38384586516590347, 0.5426644959165066, 0.04742035413489598, 0.01 };
p14 = newp; Point(p14) = {0.3639592214072092, 0.5384956231243244, 0.0979386601602423, 0.054451421873199526 };
p15 = newp; Point(p15) = {0.32666512111562607, 0.5306775940038239, 0.1368357789240466, 0.054451421873199506 };
p16 = newp; Point(p16) = {0.2776412529886866, 0.5204006326179906, 0.1581899766977793, 0.054451421873199506 };
p17 = newp; Point(p17) = {0.22435105654624604, 0.5092293131769308, 0.15875027044667442, 0.05445142187319954 };
p18 = newp; Point(p18) = {0.17490748111983234, 0.49886436779728294, 0.1384313605265382, 0.0544514218731995 };
p19 = newp; Point(p19) = {0.13683786286098965, 0.4908837654546345, 0.10032661678133432, 0.0544514218731995 };
p20 = newp; Point(p20) = {0.4610735285595565, 0.28644890041937404, -0.023766676279747528, 0.0238889339682132 };
p21 = newp; Point(p21) = {0.4587155974, 0.2859327363, 0.0, 0.01 };
p22 = newp; Point(p22) = {0.4587155974, 0.2859327363, 0.00794098150984047, 0.01 };
p23 = newp; Point(p23) = {0.46222243141300795, 0.28670040158266913, 0.0376203532120976, 0.029895690315190016 };
p24 = newp; Point(p24) = {0.4862322729913192, 0.2919562881611859, 0.09388449618160023, 0.061398294931003336 };
p25 = newp; Point(p25) = {0.5294477725639484, 0.30141639906807566, 0.1364600468973797, 0.061398294931003274 };
p26 = newp; Point(p26) = {0.5852897620704416, 0.3136405181738834, 0.1588652637112869, 0.061398294931003274 };
p27 = newp; Point(p27) = {0.6452568048173309, 0.3267676341566655, 0.15768915546720066, 0.06139829493100335 };
p28 = newp; Point(p28) = {0.7002194621489986, 0.3387992626056461, 0.1331107739838353, 0.06139829493100333 };
p29 = newp; Point(p29) = {0.7418101677244274, 0.34790369715645136, 0.08887195503845023, 0.06139829493100329 };
p30 = newp; Point(p30) = {0.7636971136404435, 0.35269487018062595, 0.03170765778958803, 0.023888933968213233 };
p31 = newp; Point(p31) = {0.7660550448, 0.3532110343, 0.00794098150984047, 0.01 };
p32 = newp; Point(p32) = {0.7660550448, 0.3532110343, 0.0, 0.01 };
p33 = newp; Point(p33) = {0.7625482107869921, 0.3524433690173309, -0.029679371702257106, 0.029895690315189984 };
p34 = newp; Point(p34) = {0.7385383692086807, 0.34718748243881414, -0.08594351467175984, 0.06139829493100327 };
p35 = newp; Point(p35) = {0.6953228696360516, 0.3377273715319244, -0.12851906538753927, 0.06139829493100326 };
p36 = newp; Point(p36) = {0.6394808801295584, 0.32550325242611666, -0.15092428220144644, 0.06139829493100326 };
p37 = newp; Point(p37) = {0.579513837382669, 0.31237613644333456, -0.1497481739573602, 0.06139829493100337 };
p38 = newp; Point(p38) = {0.5245511800510014, 0.30034450799435397, -0.1251697924739948, 0.06139829493100329 };
p39 = newp; Point(p39) = {0.48296047447557255, 0.2912400734435487, -0.08093097352860977, 0.06139829493100329 };
p40 = newp; Point(p40) = {0.11709766675399802, 0.8885048100068772, 0.028583076523828133, 0.01 };
p41 = newp; Point(p41) = {0.1162079369, 0.8883792011, 0.020358718372314826, 0.01 };
p42 = newp; Point(p42) = {0.1162079369, 0.8883792011, 0.0, 0.020358718372314826 };
p43 = newp; Point(p43) = {0.1199496280141096, 0.8889074397879604, -0.022704312322791888, 0.023016626306992614 };
p44 = newp; Point(p44) = {0.14201861744019456, 0.8920230614850811, -0.06898546027339891, 0.051368200751770426 };
p45 = newp; Point(p45) = {0.1799448314480187, 0.8973773499380341, -0.10321448209216386, 0.051368200751770426 };
p46 = newp; Point(p46) = {0.2279543477568771, 0.9041551632666026, -0.12018031949403536, 0.05136820075177057 };
p47 = newp; Point(p47) = {0.27873815271609503, 0.911324640832543, -0.11730007753027737, 0.051368200751770406 };
p48 = newp; Point(p48) = {0.32456487237696974, 0.9177942946679168, -0.09501224693041371, 0.051368200751770406 };
p49 = newp; Point(p49) = {0.35845780409138145, 0.9225791786238466, -0.05670994786358611, 0.05136820075177047 };
p50 = newp; Point(p50) = {0.37525705624600203, 0.9249508374931229, -0.00822435815151329, 0.01 };
p51 = newp; Point(p51) = {0.37614678609999996, 0.9250764464, 0.0, 0.01 };
p52 = newp; Point(p52) = {0.37614678609999996, 0.9250764464, 0.020358718372314826, 0.020358718372314826 };
p53 = newp; Point(p53) = {0.3724050949858905, 0.9245482077120397, 0.04306303069510673, 0.02301662630699261 };
p54 = newp; Point(p54) = {0.35033610555980543, 0.921432586014919, 0.08934417864571373, 0.05136820075177047 };
p55 = newp; Point(p55) = {0.3124098915519813, 0.916078297561966, 0.12357320046447873, 0.05136820075177047 };
p56 = newp; Point(p56) = {0.26440037524312293, 0.9093004842333975, 0.1405390378663502, 0.0513682007517705 };
p57 = newp; Point(p57) = {0.21361657028390507, 0.902131006667457, 0.13765879590259222, 0.05136820075177049 };
p58 = newp; Point(p58) = {0.1677898506230303, 0.8956613528320831, 0.11537096530272851, 0.05136820075177049 };
p59 = newp; Point(p59) = {0.13389691890861857, 0.8908764688761535, 0.07706866623590089, 0.051368200751770496 };
p60 = newp; Point(p60) = {0.016972447919999994, 0.190061179785, 0.2053336955981969, 0.1 };
p61 = newp; Point(p61) = {0.016972447919999994, 0.190061179785, -0.19739271408835643, 0.1 };
p62 = newp; Point(p62) = {0.016972447919999994, 1.020948002915, -0.19739271408835643, 0.1 };
p63 = newp; Point(p63) = {0.016972447919999994, 1.020948002915, 0.2053336955981969, 0.1 };
p64 = newp; Point(p64) = {0.86376147048, 0.190061179785, 0.2053336955981969, 0.1 };
p65 = newp; Point(p65) = {0.86376147048, 0.190061179785, -0.19739271408835643, 0.1 };
p66 = newp; Point(p66) = {0.86376147048, 1.020948002915, -0.19739271408835643, 0.1 };
p67 = newp; Point(p67) = {0.86376147048, 1.020948002915, 0.2053336955981969, 0.1 };
// End of point specification

// Define lines 
frac_line_0= newl; Line(frac_line_0) = {p0, p1};
Physical Line("FRACTURE_TIP_0") = {frac_line_0};

frac_line_1= newl; Line(frac_line_1) = {p0, p19};
Physical Line("FRACTURE_TIP_1") = {frac_line_1};

frac_line_2= newl; Line(frac_line_2) = {p1, p2};
Physical Line("FRACTURE_TIP_2") = {frac_line_2};

frac_line_3= newl; Line(frac_line_3) = {p2, p3};
Physical Line("FRACTURE_TIP_3") = {frac_line_3};

frac_line_4= newl; Line(frac_line_4) = {p3, p4};
Physical Line("FRACTURE_TIP_4") = {frac_line_4};

frac_line_5= newl; Line(frac_line_5) = {p4, p5};
Physical Line("FRACTURE_TIP_5") = {frac_line_5};

frac_line_6= newl; Line(frac_line_6) = {p5, p6};
Physical Line("FRACTURE_TIP_6") = {frac_line_6};

frac_line_7= newl; Line(frac_line_7) = {p6, p7};
Physical Line("FRACTURE_TIP_7") = {frac_line_7};

frac_line_8= newl; Line(frac_line_8) = {p7, p8};
Physical Line("FRACTURE_TIP_8") = {frac_line_8};

frac_line_9= newl; Line(frac_line_9) = {p8, p9};
Physical Line("FRACTURE_TIP_9") = {frac_line_9};

frac_line_10= newl; Line(frac_line_10) = {p9, p10};
Physical Line("FRACTURE_TIP_10") = {frac_line_10};

frac_line_11= newl; Line(frac_line_11) = {p10, p11};
Physical Line("FRACTURE_TIP_11") = {frac_line_11};

frac_line_12= newl; Line(frac_line_12) = {p11, p12};
Physical Line("FRACTURE_TIP_12") = {frac_line_12};

frac_line_13= newl; Line(frac_line_13) = {p12, p13};
Physical Line("FRACTURE_TIP_13") = {frac_line_13};

frac_line_14= newl; Line(frac_line_14) = {p13, p14};
Physical Line("FRACTURE_TIP_14") = {frac_line_14};

frac_line_15= newl; Line(frac_line_15) = {p14, p15};
Physical Line("FRACTURE_TIP_15") = {frac_line_15};

frac_line_16= newl; Line(frac_line_16) = {p15, p16};
Physical Line("FRACTURE_TIP_16") = {frac_line_16};

frac_line_17= newl; Line(frac_line_17) = {p16, p17};
Physical Line("FRACTURE_TIP_17") = {frac_line_17};

frac_line_18= newl; Line(frac_line_18) = {p17, p18};
Physical Line("FRACTURE_TIP_18") = {frac_line_18};

frac_line_19= newl; Line(frac_line_19) = {p18, p19};
Physical Line("FRACTURE_TIP_19") = {frac_line_19};

frac_line_20= newl; Line(frac_line_20) = {p20, p21};
Physical Line("FRACTURE_TIP_20") = {frac_line_20};

frac_line_21= newl; Line(frac_line_21) = {p20, p39};
Physical Line("FRACTURE_TIP_21") = {frac_line_21};

frac_line_22= newl; Line(frac_line_22) = {p21, p22};
Physical Line("FRACTURE_TIP_22") = {frac_line_22};

frac_line_23= newl; Line(frac_line_23) = {p22, p23};
Physical Line("FRACTURE_TIP_23") = {frac_line_23};

frac_line_24= newl; Line(frac_line_24) = {p23, p24};
Physical Line("FRACTURE_TIP_24") = {frac_line_24};

frac_line_25= newl; Line(frac_line_25) = {p24, p25};
Physical Line("FRACTURE_TIP_25") = {frac_line_25};

frac_line_26= newl; Line(frac_line_26) = {p25, p26};
Physical Line("FRACTURE_TIP_26") = {frac_line_26};

frac_line_27= newl; Line(frac_line_27) = {p26, p27};
Physical Line("FRACTURE_TIP_27") = {frac_line_27};

frac_line_28= newl; Line(frac_line_28) = {p27, p28};
Physical Line("FRACTURE_TIP_28") = {frac_line_28};

frac_line_29= newl; Line(frac_line_29) = {p28, p29};
Physical Line("FRACTURE_TIP_29") = {frac_line_29};

frac_line_30= newl; Line(frac_line_30) = {p29, p30};
Physical Line("FRACTURE_TIP_30") = {frac_line_30};

frac_line_31= newl; Line(frac_line_31) = {p30, p31};
Physical Line("FRACTURE_TIP_31") = {frac_line_31};

frac_line_32= newl; Line(frac_line_32) = {p31, p32};
Physical Line("FRACTURE_TIP_32") = {frac_line_32};

frac_line_33= newl; Line(frac_line_33) = {p32, p33};
Physical Line("FRACTURE_TIP_33") = {frac_line_33};

frac_line_34= newl; Line(frac_line_34) = {p33, p34};
Physical Line("FRACTURE_TIP_34") = {frac_line_34};

frac_line_35= newl; Line(frac_line_35) = {p34, p35};
Physical Line("FRACTURE_TIP_35") = {frac_line_35};

frac_line_36= newl; Line(frac_line_36) = {p35, p36};
Physical Line("FRACTURE_TIP_36") = {frac_line_36};

frac_line_37= newl; Line(frac_line_37) = {p36, p37};
Physical Line("FRACTURE_TIP_37") = {frac_line_37};

frac_line_38= newl; Line(frac_line_38) = {p37, p38};
Physical Line("FRACTURE_TIP_38") = {frac_line_38};

frac_line_39= newl; Line(frac_line_39) = {p38, p39};
Physical Line("FRACTURE_TIP_39") = {frac_line_39};

frac_line_40= newl; Line(frac_line_40) = {p40, p41};
Physical Line("FRACTURE_TIP_40") = {frac_line_40};

frac_line_41= newl; Line(frac_line_41) = {p40, p59};
Physical Line("FRACTURE_TIP_41") = {frac_line_41};

frac_line_42= newl; Line(frac_line_42) = {p41, p42};
Physical Line("FRACTURE_TIP_42") = {frac_line_42};

frac_line_43= newl; Line(frac_line_43) = {p42, p43};
Physical Line("FRACTURE_TIP_43") = {frac_line_43};

frac_line_44= newl; Line(frac_line_44) = {p43, p44};
Physical Line("FRACTURE_TIP_44") = {frac_line_44};

frac_line_45= newl; Line(frac_line_45) = {p44, p45};
Physical Line("FRACTURE_TIP_45") = {frac_line_45};

frac_line_46= newl; Line(frac_line_46) = {p45, p46};
Physical Line("FRACTURE_TIP_46") = {frac_line_46};

frac_line_47= newl; Line(frac_line_47) = {p46, p47};
Physical Line("FRACTURE_TIP_47") = {frac_line_47};

frac_line_48= newl; Line(frac_line_48) = {p47, p48};
Physical Line("FRACTURE_TIP_48") = {frac_line_48};

frac_line_49= newl; Line(frac_line_49) = {p48, p49};
Physical Line("FRACTURE_TIP_49") = {frac_line_49};

frac_line_50= newl; Line(frac_line_50) = {p49, p50};
Physical Line("FRACTURE_TIP_50") = {frac_line_50};

frac_line_51= newl; Line(frac_line_51) = {p50, p51};
Physical Line("FRACTURE_TIP_51") = {frac_line_51};

frac_line_52= newl; Line(frac_line_52) = {p51, p52};
Physical Line("FRACTURE_TIP_52") = {frac_line_52};

frac_line_53= newl; Line(frac_line_53) = {p52, p53};
Physical Line("FRACTURE_TIP_53") = {frac_line_53};

frac_line_54= newl; Line(frac_line_54) = {p53, p54};
Physical Line("FRACTURE_TIP_54") = {frac_line_54};

frac_line_55= newl; Line(frac_line_55) = {p54, p55};
Physical Line("FRACTURE_TIP_55") = {frac_line_55};

frac_line_56= newl; Line(frac_line_56) = {p55, p56};
Physical Line("FRACTURE_TIP_56") = {frac_line_56};

frac_line_57= newl; Line(frac_line_57) = {p56, p57};
Physical Line("FRACTURE_TIP_57") = {frac_line_57};

frac_line_58= newl; Line(frac_line_58) = {p57, p58};
Physical Line("FRACTURE_TIP_58") = {frac_line_58};

frac_line_59= newl; Line(frac_line_59) = {p58, p59};
Physical Line("FRACTURE_TIP_59") = {frac_line_59};

frac_line_60= newl; Line(frac_line_60) = {p60, p61};
Physical Line("AUXILIARY_LINE_60") = {frac_line_60};

frac_line_61= newl; Line(frac_line_61) = {p60, p63};
Physical Line("AUXILIARY_LINE_61") = {frac_line_61};

frac_line_62= newl; Line(frac_line_62) = {p60, p64};
Physical Line("AUXILIARY_LINE_62") = {frac_line_62};

frac_line_63= newl; Line(frac_line_63) = {p61, p62};
Physical Line("AUXILIARY_LINE_63") = {frac_line_63};

frac_line_64= newl; Line(frac_line_64) = {p61, p65};
Physical Line("AUXILIARY_LINE_64") = {frac_line_64};

frac_line_65= newl; Line(frac_line_65) = {p62, p63};
Physical Line("AUXILIARY_LINE_65") = {frac_line_65};

frac_line_66= newl; Line(frac_line_66) = {p62, p66};
Physical Line("AUXILIARY_LINE_66") = {frac_line_66};

frac_line_67= newl; Line(frac_line_67) = {p63, p67};
Physical Line("AUXILIARY_LINE_67") = {frac_line_67};

frac_line_68= newl; Line(frac_line_68) = {p64, p65};
Physical Line("AUXILIARY_LINE_68") = {frac_line_68};

frac_line_69= newl; Line(frac_line_69) = {p64, p67};
Physical Line("AUXILIARY_LINE_69") = {frac_line_69};

frac_line_70= newl; Line(frac_line_70) = {p65, p66};
Physical Line("AUXILIARY_LINE_70") = {frac_line_70};

frac_line_71= newl; Line(frac_line_71) = {p66, p67};
Physical Line("AUXILIARY_LINE_71") = {frac_line_71};

// End of line specification 

// Start domain specification
frac_loop_3 = newll; 
Line Loop(frac_loop_3) = { frac_line_60, frac_line_63, frac_line_65, -frac_line_61};
auxiliary_3 = news; Plane Surface(auxiliary_3) = {frac_loop_3};
Physical Surface("AUXILIARY_3") = {auxiliary_3};

frac_loop_4 = newll; 
Line Loop(frac_loop_4) = { frac_line_68, frac_line_70, frac_line_71, -frac_line_69};
auxiliary_4 = news; Plane Surface(auxiliary_4) = {frac_loop_4};
Physical Surface("AUXILIARY_4") = {auxiliary_4};

frac_loop_5 = newll; 
Line Loop(frac_loop_5) = { frac_line_60, frac_line_64, -frac_line_68, -frac_line_62};
auxiliary_5 = news; Plane Surface(auxiliary_5) = {frac_loop_5};
Physical Surface("AUXILIARY_5") = {auxiliary_5};

frac_loop_6 = newll; 
Line Loop(frac_loop_6) = { frac_line_65, frac_line_67, -frac_line_71, -frac_line_66};
auxiliary_6 = news; Plane Surface(auxiliary_6) = {frac_loop_6};
Physical Surface("AUXILIARY_6") = {auxiliary_6};

frac_loop_7 = newll; 
Line Loop(frac_loop_7) = { frac_line_63, frac_line_66, -frac_line_70, -frac_line_64};
auxiliary_7 = news; Plane Surface(auxiliary_7) = {frac_loop_7};
Physical Surface("AUXILIARY_7") = {auxiliary_7};

frac_loop_8 = newll; 
Line Loop(frac_loop_8) = { frac_line_61, frac_line_67, -frac_line_69, -frac_line_62};
auxiliary_8 = news; Plane Surface(auxiliary_8) = {frac_loop_8};
Physical Surface("AUXILIARY_8") = {auxiliary_8};

domain_loop = newsl;
Surface Loop(domain_loop) = {auxiliary_3,auxiliary_4,auxiliary_5,auxiliary_6,auxiliary_7,auxiliary_8};
Volume(1) = {domain_loop};
Physical Volume("DOMAIN") = {1};
// End of domain specification

// Start fracture specification
frac_loop_0 = newll; 
Line Loop(frac_loop_0) = { frac_line_0, frac_line_2, frac_line_3, frac_line_4, frac_line_5, frac_line_6, frac_line_7, frac_line_8, frac_line_9, frac_line_10, frac_line_11, frac_line_12, frac_line_13, frac_line_14, frac_line_15, frac_line_16, frac_line_17, frac_line_18, frac_line_19, -frac_line_1};
fracture_0 = news; Plane Surface(fracture_0) = {frac_loop_0};
Physical Surface("FRACTURE_0") = {fracture_0};
Surface{fracture_0} In Volume{1};


frac_loop_1 = newll; 
Line Loop(frac_loop_1) = { frac_line_20, frac_line_22, frac_line_23, frac_line_24, frac_line_25, frac_line_26, frac_line_27, frac_line_28, frac_line_29, frac_line_30, frac_line_31, frac_line_32, frac_line_33, frac_line_34, frac_line_35, frac_line_36, frac_line_37, frac_line_38, frac_line_39, -frac_line_21};
fracture_1 = news; Plane Surface(fracture_1) = {frac_loop_1};
Physical Surface("FRACTURE_1") = {fracture_1};
Surface{fracture_1} In Volume{1};


frac_loop_2 = newll; 
Line Loop(frac_loop_2) = { frac_line_40, frac_line_42, frac_line_43, frac_line_44, frac_line_45, frac_line_46, frac_line_47, frac_line_48, frac_line_49, frac_line_50, frac_line_51, frac_line_52, frac_line_53, frac_line_54, frac_line_55, frac_line_56, frac_line_57, frac_line_58, frac_line_59, -frac_line_41};
fracture_2 = news; Plane Surface(fracture_2) = {frac_loop_2};
Physical Surface("FRACTURE_2") = {fracture_2};
Surface{fracture_2} In Volume{1};


// End of fracture specification

// Start physical point specification
// End of physical point specification

