Geometry.Tolerance = 6.666666666666667e-09;
// Define points
p0 = newp; Point(p0) = {2272.9348018832516, 1472.7263658208471, 1245.0934018465623, 375.99970069291226 };
p1 = newp; Point(p1) = {2058.3609840710137, 1560.6035135107809, 949.10107332347, 375.9997006929127 };
p2 = newp; Point(p2) = {1789.8531887987187, 1688.656293982617, 719.1405892993598, 375.9997006929127 };
p3 = newp; Point(p3) = {1484.2827483459187, 1848.8386800941264, 569.6612127209664, 375.99970069291254 };
p4 = newp; Point(p4) = {1160.8497772957317, 2031.085823416316, 510.0552825654024, 375.99970069291254 };
p5 = newp; Point(p5) = {839.8767587225009, 2223.9464656761447, 544.0680586396184, 375.99970069291265 };
p6 = newp; Point(p6) = {541.5316078393705, 2415.302463428601, 669.5623931326309, 375.9997006929128 };
p7 = newp; Point(p7) = {284.5604477130398, 2593.1302155767676, 878.6530154723673, 375.9997006929125 };
p8 = newp; Point(p8) = {85.10972140806462, 2746.2561504484497, 1158.2019928757036, 200.0 };
p9 = newp; Point(p9) = {-44.28834841335424, 2865.0588023978657, 1490.6442349831666, 298.56706602193356 };
p10 = newp; Point(p10) = {-95.50320513152474, 2942.073363877443, 1855.0911730861028, 375.9997006929124 };
p11 = newp; Point(p11) = {-65.3168309437774, 2972.460726749676, 2228.643265721426, 375.9997006929127 };
p12 = newp; Point(p12) = {44.37405324195356, 2954.311541248399, 2587.828861080361, 375.9997006929126 };
p13 = newp; Point(p13) = {226.67716575742577, 2888.7661874466917, 2910.0790072142922, 375.9997006929126 };
p14 = newp; Point(p14) = {470.13773157934463, 2779.9431209828645, 3175.14554228849, 375.9997006929126 };
p15 = newp; Point(p15) = {759.4582279717899, 2634.6800953460834, 3366.3733610577183, 375.9997006929126 };
p16 = newp; Point(p16) = {1076.4595841000705, 2462.1045206771432, 3471.7469163819837, 375.9997006929127 };
p17 = newp; Point(p17) = {1401.2234389092116, 2273.059955021061, 3484.645200243436, 375.9997006929119 };
p18 = newp; Point(p18) = {1713.3436850036446, 2079.424763695287, 3404.2577660304896, 375.9997006929119 };
p19 = newp; Point(p19) = {1993.2086594232903, 1893.3657579112369, 3235.635651879047, 263.80301106822 };
p20 = newp; Point(p20) = {2223.2334165539833, 1726.5737092794814, 2989.374005369999, 293.8816215741015 };
p21 = newp; Point(p21) = {2388.964654933323, 1589.5287756337982, 2680.9463514404897, 375.9997006929132 };
p22 = newp; Point(p22) = {2479.988871337077, 1490.8419941711554, 2329.7323339044756, 375.99970069291203 };
p23 = newp; Point(p23) = {2490.586679484946, 1436.7142183154454, 1957.8000211585481, 329.4352397271227 };
p24 = newp; Point(p24) = {2420.0921801149884, 1430.546495291716, 1588.5192882838937, 245.39607039849423 };
p25 = newp; Point(p25) = {1820.757437560186, 1344.3816028055398, 1618.9811633059649, 335.041930002581 };
p26 = newp; Point(p26) = {2131.613124125682, 1468.8817352643553, 1630.0063167056155, 200.0 };
p27 = newp; Point(p27) = {2366.500240325356, 1669.2370717664373, 1760.155756344796, 200.0 };
p28 = newp; Point(p28) = {2471.608978534474, 1899.548619262712, 1979.6138140729472, 335.0419300025807 };
p29 = newp; Point(p29) = {2422.860193526939, 2107.054777776814, 2238.1052936208503, 200.0 };
p30 = newp; Point(p30) = {2231.4216444614303, 2244.218387113462, 2476.4129121841065, 200.0 };
p31 = newp; Point(p31) = {1941.1495958442424, 2279.616917374317, 2639.9432662680088, 252.00728428800468 };
p32 = newp; Point(p32) = {1618.5418758561686, 2205.140991875151, 2691.23352250634, 200.0 };
p33 = newp; Point(p33) = {1337.5040253019902, 2037.8521476156243, 2618.533701309493, 200.0 };
p34 = newp; Point(p34) = {1162.4184288704168, 1816.0742427664716, 2438.498455585844, 335.0419300025807 };
p35 = newp; Point(p35) = {1133.39508669375, 1590.6139226151454, 2192.371690470768, 200.0 };
p36 = newp; Point(p36) = {1257.0828966954737, 1413.1214294169106, 1936.538081703064, 212.8593156467921 };
p37 = newp; Point(p37) = {1505.1464722038913, 1324.2581543470606, 1729.6060259222022, 335.04193000258044 };
p38 = newp; Point(p38) = {1080.3676867480242, 2606.4756236082676, 2461.8302785544192, 243.44925274577412 };
p39 = newp; Point(p39) = {1055.850972063532, 2996.1874128662153, 2259.0571453588836, 439.9923766742853 };
p40 = newp; Point(p40) = {882.394438302562, 3252.946185552172, 1946.6774804062547, 439.9923766742853 };
p41 = newp; Point(p41) = {606.4756236082676, 3307.9536358753307, 1608.3931626524943, 439.9923766742852 };
p42 = newp; Point(p42) = {302.02675155453784, 3146.4705619439046, 1334.847201851836, 439.9923766742849 };
p43 = newp; Point(p43) = {50.624651544735684, 2811.766223009116, 1199.336017293611, 200.0 };
p44 = newp; Point(p44) = {-80.3676867480242, 2393.5243763917324, 1238.169721445581, 397.7402602853795 };
p45 = newp; Point(p45) = {-55.85097206353214, 2003.812587133785, 1440.9428546411164, 439.992376674285 };
p46 = newp; Point(p46) = {117.6055616974379, 1747.0538144478278, 1753.3225195937448, 439.9923766742851 };
p47 = newp; Point(p47) = {393.5243763917323, 1692.0463641246693, 2091.6068373475055, 439.992376674285 };
p48 = newp; Point(p48) = {697.9732484454619, 1853.529438056095, 2365.152798148164, 439.992376674285 };
p49 = newp; Point(p49) = {949.3753484552642, 2188.233776990884, 2500.663982706389, 200.0 };
p50 = newp; Point(p50) = {2771.3709360190405, 2606.8613803656995, 1459.303590392265, 200.0 };
p51 = newp; Point(p51) = {2914.233319282589, 2651.796383957799, 1819.5980808828406, 301.35208989635265 };
p52 = newp; Point(p52) = {2933.1360607287834, 2612.725390139001, 2207.3571282115345, 390.1806440322564 };
p53 = newp; Point(p53) = {2825.2013893262174, 2495.596603538775, 2563.54793246707, 390.1806440322564 };
p54 = newp; Point(p54) = {2606.8613803656995, 2318.241820141912, 2833.943672579224, 390.1806440322563 };
p55 = newp; Point(p55) = {2311.3563209543586, 2107.661697995469, 2977.379048259407, 390.1806440322563 };
p56 = newp; Point(p56) = {1983.674177627537, 1895.9151517826808, 2972.017323805231, 200.0 };
p57 = newp; Point(p57) = {1673.7015862607172, 1715.2386736772237, 2818.6747731606915, 355.01969075887706 };
p58 = newp; Point(p58) = {1428.62906398096, 1593.1386196343005, 2540.6964096077354, 361.95692577093854 };
p59 = newp; Point(p59) = {1285.766680717411, 1548.2036160422008, 2180.4019191171597, 200.0 };
p60 = newp; Point(p60) = {1266.8639392712169, 1587.2746098609991, 1792.6428717884658, 226.12127385327125 };
p61 = newp; Point(p61) = {1374.7986106737826, 1704.4033964612247, 1436.4520675329304, 366.8138535194521 };
p62 = newp; Point(p62) = {1593.1386196343005, 1881.758179858088, 1166.0563274207766, 200.0 };
p63 = newp; Point(p63) = {1888.6436790456419, 2092.338302004531, 1022.6209517405927, 390.18064403225605 };
p64 = newp; Point(p64) = {2216.325822372463, 2304.084848217319, 1027.9826761947684, 334.9924093559713 };
p65 = newp; Point(p65) = {2526.2984137392823, 2484.7613263227763, 1181.3252268393082, 200.0 };
p66 = newp; Point(p66) = {2212.3848607724635, 2505.9214353829457, 631.8563941138092, 334.5630884593959 };
p67 = newp; Point(p67) = {2509.898725392873, 2502.08947180368, 784.8376889613995, 334.5630884593959 };
p68 = newp; Point(p68) = {2719.2464681083584, 2480.6053110958233, 1061.4770444331941, 227.177928006723 };
p69 = newp; Point(p69) = {2804.2299623388767, 2445.183759823236, 1413.9410027784731, 200.0 };
p70 = newp; Point(p70) = {2750.1547898811627, 2401.9495259956398, 1781.2853435647996, 301.35208989635265 };
p71 = newp; Point(p71) = {2566.3710393106758, 2358.37820141251, 2099.992893051649, 200.0 };
p72 = newp; Point(p72) = {2284.65659072401, 2322.003663927326, 2314.9562205655543, 200.0 };
p73 = newp; Point(p73) = {1953.7224315772214, 2299.1154015235766, 2389.0062138988383, 252.00728428800468 };
p74 = newp; Point(p74) = {1630.7900844292417, 2293.6710027042054, 2309.338956481106, 200.0 };
p75 = newp; Point(p75) = {1371.6974858502297, 2306.611853485892, 2089.729640874196, 261.5401821248322 };
p76 = newp; Point(p76) = {1221.2440999168612, 2335.700363204545, 1768.150712834542, 356.2237635189435 };
p77 = newp; Point(p77) = {1205.4446838831168, 2375.9068642689936, 1400.2060904730467, 200.0 };
p78 = newp; Point(p78) = {1327.0311003144202, 2420.2792873806, 1049.5167416679678, 284.0863035515434 };
p79 = newp; Point(p79) = {1564.9799532318816, 2461.1452374725586, 776.7200407404213, 347.5879450401578 };
p80 = newp; Point(p80) = {1878.147724268607, 2491.438620518468, 628.9850155610048, 334.56308845939645 };
p81 = newp; Point(p81) = {1396.5377432999649, 2769.7446771801915, 1391.914995899763, 405.57033681937406 };
p82 = newp; Point(p82) = {1626.1947991090558, 3037.1461018820382, 1592.5176202402815, 285.3443153017243 };
p83 = newp; Point(p83) = {1822.0380604078675, 3160.6196623670676, 1848.7149806811042, 200.0 };
p84 = newp; Point(p84) = {1931.591483488306, 3107.08071781672, 2091.859201389127, 200.0 };
p85 = newp; Point(p85) = {1925.500317107903, 2890.8749851868765, 2256.799984781341, 200.0 };
p86 = newp; Point(p86) = {1805.3966843792505, 2569.934615934682, 2299.3415811488458, 318.1672002858047 };
p87 = newp; Point(p87) = {1603.4622567000351, 2230.255322819809, 2208.085004100237, 200.0 };
p88 = newp; Point(p88) = {1373.8052008909444, 1962.8538981179618, 2007.4823797597185, 200.0 };
p89 = newp; Point(p89) = {1177.9619395921327, 1839.3803376329327, 1751.285019318896, 270.5020064310999 };
p90 = newp; Point(p90) = {1068.408516511694, 1892.9192821832798, 1508.140798610873, 272.0064027847845 };
p91 = newp; Point(p91) = {1074.499682892097, 2109.1250148131235, 1343.200015218659, 200.0 };
p92 = newp; Point(p92) = {1194.6033156207495, 2430.0653840653176, 1300.6584188511542, 200.0 };
p93 = newp; Point(p93) = {2294.158767651579, 2993.1234816255237, 3135.1561484459944, 322.87053881942427 };
p94 = newp; Point(p94) = {2493.413848905153, 2911.264357353555, 2894.6527571900633, 322.87053881942427 };
p95 = newp; Point(p95) = {2504.201610396863, 2863.2992325589635, 2503.4054264413876, 394.324108840084 };
p96 = newp; Point(p96) = {2322.401493899404, 2867.549154638653, 2110.8573385382897, 394.3241088400839 };
p97 = newp; Point(p97) = {2017.4549647561146, 2922.3907978077204, 1866.948520840971, 270.64251678796086 };
p98 = newp; Point(p98) = {1705.8412323484208, 3006.876518374476, 1864.8438515540056, 200.0 };
p99 = newp; Point(p99) = {1506.586151094847, 3088.735642646445, 2105.3472428099367, 322.8705388194243 };
p100 = newp; Point(p100) = {1495.7983896031367, 3136.7007674410365, 2496.594573558612, 394.32410884008357 };
p101 = newp; Point(p101) = {1677.5985061005958, 3132.450845361347, 2889.1426614617103, 394.32410884008374 };
p102 = newp; Point(p102) = {1982.5450352438852, 3077.6092021922796, 3133.051479159029, 322.87053881942427 };
p103 = newp; Point(p103) = {-5000.0, -5000.0, 10000.0, 10000.0 };
p104 = newp; Point(p104) = {-5000.0, -5000.0, -5000.0, 10000.0 };
p105 = newp; Point(p105) = {-5000.0, 10000.0, -5000.0, 10000.0 };
p106 = newp; Point(p106) = {-5000.0, 10000.0, 10000.0, 10000.0 };
p107 = newp; Point(p107) = {10000.0, -5000.0, 10000.0, 10000.0 };
p108 = newp; Point(p108) = {10000.0, -5000.0, -5000.0, 10000.0 };
p109 = newp; Point(p109) = {10000.0, 10000.0, -5000.0, 10000.0 };
p110 = newp; Point(p110) = {10000.0, 10000.0, 10000.0, 10000.0 };
p111 = newp; Point(p111) = {2231.265309858649, 1553.8836184188317, 1685.222951580301, 200.0 };
p112 = newp; Point(p112) = {1477.6687667197082, 2121.285740462525, 2654.7919904298974, 200.0 };
p113 = newp; Point(p113) = {1007.8891881116687, 2375.0610118469604, 2483.317096868424, 200.0 };
p114 = newp; Point(p114) = {58.461738845453226, 2770.722133611175, 1226.6644906778822, 200.0 };
p115 = newp; Point(p115) = {1955.7411369506754, 1879.6335722081199, 2958.198928811789, 200.0 };
p116 = newp; Point(p116) = {1580.2933041199958, 1871.324095140633, 1181.9641704771204, 200.0 };
p117 = newp; Point(p117) = {1456.8094612588889, 2059.499992445506, 2079.9855841685344, 200.0 };
p118 = newp; Point(p118) = {1098.6976972921298, 2173.7868364439664, 1334.6288992739233, 200.0 };
p119 = newp; Point(p119) = {1281.425157090248, 1557.1773219612016, 2091.342611480979, 200.0 };
p120 = newp; Point(p120) = {2311.2264846584144, 2187.0390991519394, 2377.0697991590664, 200.0 };
p121 = newp; Point(p121) = {2516.773503782627, 2351.974243701826, 2137.838489282467, 200.0 };
p122 = newp; Point(p122) = {2482.4550289450485, 2459.205943126104, 1159.6360303087613, 200.0 };
p123 = newp; Point(p123) = {1646.9804846150496, 2303.4584960759635, 2227.7514104896127, 200.0 };
p124 = newp; Point(p124) = {1213.5432787870468, 2378.8624105399845, 1376.8474698601917, 200.0 };
p125 = newp; Point(p125) = {1756.2483365116093, 2993.209981652857, 1865.1843060107376, 200.0 };
p126 = newp; Point(p126) = {1928.1078344409207, 2983.4287195822953, 2186.1918409945556, 200.0 };
p127 = newp; Point(p127) = {1803.1063804032242, 1876.2554330944376, 2236.0875295650103, 407.37923300923745 };
// End of point specification

// Define lines 
frac_line_0= newl; Line(frac_line_0) = {p0, p1};
Physical Line("FRACTURE_TIP_0") = {frac_line_0};

frac_line_1= newl; Line(frac_line_1) = {p0, p24};
Physical Line("FRACTURE_TIP_1") = {frac_line_1};

frac_line_2= newl; Line(frac_line_2) = {p1, p2};
Physical Line("FRACTURE_TIP_2") = {frac_line_2};

frac_line_3= newl; Line(frac_line_3) = {p2, p3};
Physical Line("FRACTURE_TIP_3") = {frac_line_3};

frac_line_4= newl; Line(frac_line_4) = {p3, p4};
Physical Line("FRACTURE_TIP_4") = {frac_line_4};

frac_line_5= newl; Line(frac_line_5) = {p4, p5};
Physical Line("FRACTURE_TIP_5") = {frac_line_5};

frac_line_6= newl; Line(frac_line_6) = {p5, p6};
Physical Line("FRACTURE_TIP_6") = {frac_line_6};

frac_line_7= newl; Line(frac_line_7) = {p6, p7};
Physical Line("FRACTURE_TIP_7") = {frac_line_7};

frac_line_8= newl; Line(frac_line_8) = {p7, p8};
Physical Line("FRACTURE_TIP_8") = {frac_line_8};

frac_line_9= newl; Line(frac_line_9) = {p8, p114};
Physical Line("FRACTURE_TIP_9") = {frac_line_9};

frac_line_10= newl; Line(frac_line_10) = {p9, p10};
Physical Line("FRACTURE_TIP_10") = {frac_line_10};

frac_line_11= newl; Line(frac_line_11) = {p9, p114};
Physical Line("FRACTURE_TIP_11") = {frac_line_11};

frac_line_12= newl; Line(frac_line_12) = {p10, p11};
Physical Line("FRACTURE_TIP_12") = {frac_line_12};

frac_line_13= newl; Line(frac_line_13) = {p11, p12};
Physical Line("FRACTURE_TIP_13") = {frac_line_13};

frac_line_14= newl; Line(frac_line_14) = {p12, p13};
Physical Line("FRACTURE_TIP_14") = {frac_line_14};

frac_line_15= newl; Line(frac_line_15) = {p13, p14};
Physical Line("FRACTURE_TIP_15") = {frac_line_15};

frac_line_16= newl; Line(frac_line_16) = {p14, p15};
Physical Line("FRACTURE_TIP_16") = {frac_line_16};

frac_line_17= newl; Line(frac_line_17) = {p15, p16};
Physical Line("FRACTURE_TIP_17") = {frac_line_17};

frac_line_18= newl; Line(frac_line_18) = {p16, p17};
Physical Line("FRACTURE_TIP_18") = {frac_line_18};

frac_line_19= newl; Line(frac_line_19) = {p17, p18};
Physical Line("FRACTURE_TIP_19") = {frac_line_19};

frac_line_20= newl; Line(frac_line_20) = {p18, p19};
Physical Line("FRACTURE_TIP_20") = {frac_line_20};

frac_line_21= newl; Line(frac_line_21) = {p19, p20};
Physical Line("FRACTURE_TIP_21") = {frac_line_21};

frac_line_22= newl; Line(frac_line_22) = {p20, p21};
Physical Line("FRACTURE_TIP_22") = {frac_line_22};

frac_line_23= newl; Line(frac_line_23) = {p21, p22};
Physical Line("FRACTURE_TIP_23") = {frac_line_23};

frac_line_24= newl; Line(frac_line_24) = {p22, p23};
Physical Line("FRACTURE_TIP_24") = {frac_line_24};

frac_line_25= newl; Line(frac_line_25) = {p23, p24};
Physical Line("FRACTURE_TIP_25") = {frac_line_25};

frac_line_26= newl; Line(frac_line_26) = {p25, p26};
Physical Line("FRACTURE_TIP_26") = {frac_line_26};

frac_line_27= newl; Line(frac_line_27) = {p25, p37};
Physical Line("FRACTURE_TIP_27") = {frac_line_27};

frac_line_28= newl; Line(frac_line_28) = {p26, p111};
Physical Line("FRACTURE_TIP_28") = {frac_line_28};

frac_line_29= newl; Line(frac_line_29) = {p27, p28};
Physical Line("FRACTURE_TIP_29") = {frac_line_29};

frac_line_30= newl; Line(frac_line_30) = {p27, p111};
Physical Line("FRACTURE_TIP_30") = {frac_line_30};

frac_line_31= newl; Line(frac_line_31) = {p28, p29};
Physical Line("FRACTURE_TIP_31") = {frac_line_31};

frac_line_32= newl; Line(frac_line_32) = {p29, p120};
Physical Line("FRACTURE_TIP_32") = {frac_line_32};

frac_line_33= newl; Line(frac_line_33) = {p30, p31};
Physical Line("FRACTURE_TIP_33") = {frac_line_33};

frac_line_34= newl; Line(frac_line_34) = {p30, p120};
Physical Line("FRACTURE_TIP_34") = {frac_line_34};

frac_line_35= newl; Line(frac_line_35) = {p31, p32};
Physical Line("FRACTURE_TIP_35") = {frac_line_35};

frac_line_36= newl; Line(frac_line_36) = {p32, p112};
Physical Line("FRACTURE_TIP_36") = {frac_line_36};

frac_line_37= newl; Line(frac_line_37) = {p33, p34};
Physical Line("FRACTURE_TIP_37") = {frac_line_37};

frac_line_38= newl; Line(frac_line_38) = {p33, p112};
Physical Line("FRACTURE_TIP_38") = {frac_line_38};

frac_line_39= newl; Line(frac_line_39) = {p34, p35};
Physical Line("FRACTURE_TIP_39") = {frac_line_39};

frac_line_40= newl; Line(frac_line_40) = {p35, p36};
Physical Line("FRACTURE_TIP_40") = {frac_line_40};

frac_line_41= newl; Line(frac_line_41) = {p36, p37};
Physical Line("FRACTURE_TIP_41") = {frac_line_41};

frac_line_42= newl; Line(frac_line_42) = {p38, p39};
Physical Line("FRACTURE_TIP_42") = {frac_line_42};

frac_line_43= newl; Line(frac_line_43) = {p38, p113};
Physical Line("FRACTURE_TIP_43") = {frac_line_43};

frac_line_44= newl; Line(frac_line_44) = {p39, p40};
Physical Line("FRACTURE_TIP_44") = {frac_line_44};

frac_line_45= newl; Line(frac_line_45) = {p40, p41};
Physical Line("FRACTURE_TIP_45") = {frac_line_45};

frac_line_46= newl; Line(frac_line_46) = {p41, p42};
Physical Line("FRACTURE_TIP_46") = {frac_line_46};

frac_line_47= newl; Line(frac_line_47) = {p42, p43};
Physical Line("FRACTURE_TIP_47") = {frac_line_47};

frac_line_48= newl; Line(frac_line_48) = {p43, p44};
Physical Line("FRACTURE_TIP_48") = {frac_line_48};

frac_line_49= newl; Line(frac_line_49) = {p44, p45};
Physical Line("FRACTURE_TIP_49") = {frac_line_49};

frac_line_50= newl; Line(frac_line_50) = {p45, p46};
Physical Line("FRACTURE_TIP_50") = {frac_line_50};

frac_line_51= newl; Line(frac_line_51) = {p46, p47};
Physical Line("FRACTURE_TIP_51") = {frac_line_51};

frac_line_52= newl; Line(frac_line_52) = {p47, p48};
Physical Line("FRACTURE_TIP_52") = {frac_line_52};

frac_line_53= newl; Line(frac_line_53) = {p48, p49};
Physical Line("FRACTURE_TIP_53") = {frac_line_53};

frac_line_54= newl; Line(frac_line_54) = {p49, p113};
Physical Line("FRACTURE_TIP_54") = {frac_line_54};

frac_line_55= newl; Line(frac_line_55) = {p50, p51};
Physical Line("FRACTURE_TIP_55") = {frac_line_55};

frac_line_56= newl; Line(frac_line_56) = {p50, p65};
Physical Line("FRACTURE_TIP_56") = {frac_line_56};

frac_line_57= newl; Line(frac_line_57) = {p51, p52};
Physical Line("FRACTURE_TIP_57") = {frac_line_57};

frac_line_58= newl; Line(frac_line_58) = {p52, p53};
Physical Line("FRACTURE_TIP_58") = {frac_line_58};

frac_line_59= newl; Line(frac_line_59) = {p53, p54};
Physical Line("FRACTURE_TIP_59") = {frac_line_59};

frac_line_60= newl; Line(frac_line_60) = {p54, p55};
Physical Line("FRACTURE_TIP_60") = {frac_line_60};

frac_line_61= newl; Line(frac_line_61) = {p55, p56};
Physical Line("FRACTURE_TIP_61") = {frac_line_61};

frac_line_62= newl; Line(frac_line_62) = {p56, p115};
Physical Line("FRACTURE_TIP_62") = {frac_line_62};

frac_line_63= newl; Line(frac_line_63) = {p57, p58};
Physical Line("FRACTURE_TIP_63") = {frac_line_63};

frac_line_64= newl; Line(frac_line_64) = {p57, p115};
Physical Line("FRACTURE_TIP_64") = {frac_line_64};

frac_line_65= newl; Line(frac_line_65) = {p58, p59};
Physical Line("FRACTURE_TIP_65") = {frac_line_65};

frac_line_66= newl; Line(frac_line_66) = {p59, p119};
Physical Line("FRACTURE_TIP_66") = {frac_line_66};

frac_line_67= newl; Line(frac_line_67) = {p60, p61};
Physical Line("FRACTURE_TIP_67") = {frac_line_67};

frac_line_68= newl; Line(frac_line_68) = {p60, p119};
Physical Line("FRACTURE_TIP_68") = {frac_line_68};

frac_line_69= newl; Line(frac_line_69) = {p61, p116};
Physical Line("FRACTURE_TIP_69") = {frac_line_69};

frac_line_70= newl; Line(frac_line_70) = {p62, p63};
Physical Line("FRACTURE_TIP_70") = {frac_line_70};

frac_line_71= newl; Line(frac_line_71) = {p62, p116};
Physical Line("FRACTURE_TIP_71") = {frac_line_71};

frac_line_72= newl; Line(frac_line_72) = {p63, p64};
Physical Line("FRACTURE_TIP_72") = {frac_line_72};

frac_line_73= newl; Line(frac_line_73) = {p64, p122};
Physical Line("FRACTURE_TIP_73") = {frac_line_73};

frac_line_74= newl; Line(frac_line_74) = {p65, p122};
Physical Line("FRACTURE_TIP_74") = {frac_line_74};

frac_line_75= newl; Line(frac_line_75) = {p66, p67};
Physical Line("FRACTURE_TIP_75") = {frac_line_75};

frac_line_76= newl; Line(frac_line_76) = {p66, p80};
Physical Line("FRACTURE_TIP_76") = {frac_line_76};

frac_line_77= newl; Line(frac_line_77) = {p67, p68};
Physical Line("FRACTURE_TIP_77") = {frac_line_77};

frac_line_78= newl; Line(frac_line_78) = {p68, p69};
Physical Line("FRACTURE_TIP_78") = {frac_line_78};

frac_line_79= newl; Line(frac_line_79) = {p69, p70};
Physical Line("FRACTURE_TIP_79") = {frac_line_79};

frac_line_80= newl; Line(frac_line_80) = {p70, p71};
Physical Line("FRACTURE_TIP_80") = {frac_line_80};

frac_line_81= newl; Line(frac_line_81) = {p71, p121};
Physical Line("FRACTURE_TIP_81") = {frac_line_81};

frac_line_82= newl; Line(frac_line_82) = {p72, p73};
Physical Line("FRACTURE_TIP_82") = {frac_line_82};

frac_line_83= newl; Line(frac_line_83) = {p72, p121};
Physical Line("FRACTURE_TIP_83") = {frac_line_83};

frac_line_84= newl; Line(frac_line_84) = {p73, p74};
Physical Line("FRACTURE_TIP_84") = {frac_line_84};

frac_line_85= newl; Line(frac_line_85) = {p74, p75};
Physical Line("FRACTURE_TIP_85") = {frac_line_85};

frac_line_86= newl; Line(frac_line_86) = {p75, p76};
Physical Line("FRACTURE_TIP_86") = {frac_line_86};

frac_line_87= newl; Line(frac_line_87) = {p76, p77};
Physical Line("FRACTURE_TIP_87") = {frac_line_87};

frac_line_88= newl; Line(frac_line_88) = {p77, p124};
Physical Line("FRACTURE_TIP_88") = {frac_line_88};

frac_line_89= newl; Line(frac_line_89) = {p78, p79};
Physical Line("FRACTURE_TIP_89") = {frac_line_89};

frac_line_90= newl; Line(frac_line_90) = {p78, p124};
Physical Line("FRACTURE_TIP_90") = {frac_line_90};

frac_line_91= newl; Line(frac_line_91) = {p79, p80};
Physical Line("FRACTURE_TIP_91") = {frac_line_91};

frac_line_92= newl; Line(frac_line_92) = {p81, p82};
Physical Line("FRACTURE_TIP_92") = {frac_line_92};

frac_line_93= newl; Line(frac_line_93) = {p81, p92};
Physical Line("FRACTURE_TIP_93") = {frac_line_93};

frac_line_94= newl; Line(frac_line_94) = {p82, p83};
Physical Line("FRACTURE_TIP_94") = {frac_line_94};

frac_line_95= newl; Line(frac_line_95) = {p83, p84};
Physical Line("FRACTURE_TIP_95") = {frac_line_95};

frac_line_96= newl; Line(frac_line_96) = {p84, p126};
Physical Line("FRACTURE_TIP_96") = {frac_line_96};

frac_line_97= newl; Line(frac_line_97) = {p85, p86};
Physical Line("FRACTURE_TIP_97") = {frac_line_97};

frac_line_98= newl; Line(frac_line_98) = {p85, p126};
Physical Line("FRACTURE_TIP_98") = {frac_line_98};

frac_line_99= newl; Line(frac_line_99) = {p86, p123};
Physical Line("FRACTURE_TIP_99") = {frac_line_99};

frac_line_100= newl; Line(frac_line_100) = {p87, p117};
Physical Line("FRACTURE_TIP_100") = {frac_line_100};

frac_line_101= newl; Line(frac_line_101) = {p87, p123};
Physical Line("FRACTURE_TIP_101") = {frac_line_101};

frac_line_102= newl; Line(frac_line_102) = {p88, p89};
Physical Line("FRACTURE_TIP_102") = {frac_line_102};

frac_line_103= newl; Line(frac_line_103) = {p88, p117};
Physical Line("FRACTURE_TIP_103") = {frac_line_103};

frac_line_104= newl; Line(frac_line_104) = {p89, p90};
Physical Line("FRACTURE_TIP_104") = {frac_line_104};

frac_line_105= newl; Line(frac_line_105) = {p90, p91};
Physical Line("FRACTURE_TIP_105") = {frac_line_105};

frac_line_106= newl; Line(frac_line_106) = {p91, p118};
Physical Line("FRACTURE_TIP_106") = {frac_line_106};

frac_line_107= newl; Line(frac_line_107) = {p92, p118};
Physical Line("FRACTURE_TIP_107") = {frac_line_107};

frac_line_108= newl; Line(frac_line_108) = {p93, p94};
Physical Line("FRACTURE_TIP_108") = {frac_line_108};

frac_line_109= newl; Line(frac_line_109) = {p93, p102};
Physical Line("FRACTURE_TIP_109") = {frac_line_109};

frac_line_110= newl; Line(frac_line_110) = {p94, p95};
Physical Line("FRACTURE_TIP_110") = {frac_line_110};

frac_line_111= newl; Line(frac_line_111) = {p95, p96};
Physical Line("FRACTURE_TIP_111") = {frac_line_111};

frac_line_112= newl; Line(frac_line_112) = {p96, p97};
Physical Line("FRACTURE_TIP_112") = {frac_line_112};

frac_line_113= newl; Line(frac_line_113) = {p97, p125};
Physical Line("FRACTURE_TIP_113") = {frac_line_113};

frac_line_114= newl; Line(frac_line_114) = {p98, p99};
Physical Line("FRACTURE_TIP_114") = {frac_line_114};

frac_line_115= newl; Line(frac_line_115) = {p98, p125};
Physical Line("FRACTURE_TIP_115") = {frac_line_115};

frac_line_116= newl; Line(frac_line_116) = {p99, p100};
Physical Line("FRACTURE_TIP_116") = {frac_line_116};

frac_line_117= newl; Line(frac_line_117) = {p100, p101};
Physical Line("FRACTURE_TIP_117") = {frac_line_117};

frac_line_118= newl; Line(frac_line_118) = {p101, p102};
Physical Line("FRACTURE_TIP_118") = {frac_line_118};

frac_line_119= newl; Line(frac_line_119) = {p103, p104};
Physical Line("AUXILIARY_LINE_119") = {frac_line_119};

frac_line_120= newl; Line(frac_line_120) = {p103, p106};
Physical Line("AUXILIARY_LINE_120") = {frac_line_120};

frac_line_121= newl; Line(frac_line_121) = {p103, p107};
Physical Line("AUXILIARY_LINE_121") = {frac_line_121};

frac_line_122= newl; Line(frac_line_122) = {p104, p105};
Physical Line("AUXILIARY_LINE_122") = {frac_line_122};

frac_line_123= newl; Line(frac_line_123) = {p104, p108};
Physical Line("AUXILIARY_LINE_123") = {frac_line_123};

frac_line_124= newl; Line(frac_line_124) = {p105, p106};
Physical Line("AUXILIARY_LINE_124") = {frac_line_124};

frac_line_125= newl; Line(frac_line_125) = {p105, p109};
Physical Line("AUXILIARY_LINE_125") = {frac_line_125};

frac_line_126= newl; Line(frac_line_126) = {p106, p110};
Physical Line("AUXILIARY_LINE_126") = {frac_line_126};

frac_line_127= newl; Line(frac_line_127) = {p107, p108};
Physical Line("AUXILIARY_LINE_127") = {frac_line_127};

frac_line_128= newl; Line(frac_line_128) = {p107, p110};
Physical Line("AUXILIARY_LINE_128") = {frac_line_128};

frac_line_129= newl; Line(frac_line_129) = {p108, p109};
Physical Line("AUXILIARY_LINE_129") = {frac_line_129};

frac_line_130= newl; Line(frac_line_130) = {p109, p110};
Physical Line("AUXILIARY_LINE_130") = {frac_line_130};

frac_line_131= newl; Line(frac_line_131) = {p111, p127};
Physical Line("FRACTURE_LINE_131") = {frac_line_131};

frac_line_132= newl; Line(frac_line_132) = {p112, p127};
Physical Line("FRACTURE_LINE_132") = {frac_line_132};

frac_line_133= newl; Line(frac_line_133) = {p113, p114};
Physical Line("FRACTURE_LINE_133") = {frac_line_133};

frac_line_134= newl; Line(frac_line_134) = {p115, p127};
Physical Line("FRACTURE_LINE_134") = {frac_line_134};

frac_line_135= newl; Line(frac_line_135) = {p116, p127};
Physical Line("FRACTURE_LINE_135") = {frac_line_135};

frac_line_136= newl; Line(frac_line_136) = {p117, p118};
Physical Line("FRACTURE_LINE_136") = {frac_line_136};

frac_line_137= newl; Line(frac_line_137) = {p119, p127};
Physical Line("FRACTURE_LINE_137") = {frac_line_137};

frac_line_138= newl; Line(frac_line_138) = {p120, p127};
Physical Line("FRACTURE_LINE_138") = {frac_line_138};

frac_line_139= newl; Line(frac_line_139) = {p121, p122};
Physical Line("FRACTURE_LINE_139") = {frac_line_139};

frac_line_140= newl; Line(frac_line_140) = {p123, p124};
Physical Line("FRACTURE_LINE_140") = {frac_line_140};

frac_line_141= newl; Line(frac_line_141) = {p125, p126};
Physical Line("FRACTURE_LINE_141") = {frac_line_141};

// End of line specification 

// Start domain specification
frac_loop_7 = newll; 
Line Loop(frac_loop_7) = { frac_line_119, frac_line_122, frac_line_124, -frac_line_120};
auxiliary_7 = news; Plane Surface(auxiliary_7) = {frac_loop_7};
Physical Surface("AUXILIARY_7") = {auxiliary_7};

frac_loop_8 = newll; 
Line Loop(frac_loop_8) = { frac_line_127, frac_line_129, frac_line_130, -frac_line_128};
auxiliary_8 = news; Plane Surface(auxiliary_8) = {frac_loop_8};
Physical Surface("AUXILIARY_8") = {auxiliary_8};

frac_loop_9 = newll; 
Line Loop(frac_loop_9) = { frac_line_119, frac_line_123, -frac_line_127, -frac_line_121};
auxiliary_9 = news; Plane Surface(auxiliary_9) = {frac_loop_9};
Physical Surface("AUXILIARY_9") = {auxiliary_9};

frac_loop_10 = newll; 
Line Loop(frac_loop_10) = { frac_line_124, frac_line_126, -frac_line_130, -frac_line_125};
auxiliary_10 = news; Plane Surface(auxiliary_10) = {frac_loop_10};
Physical Surface("AUXILIARY_10") = {auxiliary_10};

frac_loop_11 = newll; 
Line Loop(frac_loop_11) = { frac_line_122, frac_line_125, -frac_line_129, -frac_line_123};
auxiliary_11 = news; Plane Surface(auxiliary_11) = {frac_loop_11};
Physical Surface("AUXILIARY_11") = {auxiliary_11};

frac_loop_12 = newll; 
Line Loop(frac_loop_12) = { frac_line_120, frac_line_126, -frac_line_128, -frac_line_121};
auxiliary_12 = news; Plane Surface(auxiliary_12) = {frac_loop_12};
Physical Surface("AUXILIARY_12") = {auxiliary_12};

domain_loop = newsl;
Surface Loop(domain_loop) = {auxiliary_7,auxiliary_8,auxiliary_9,auxiliary_10,auxiliary_11,auxiliary_12};
Volume(1) = {domain_loop};
Physical Volume("DOMAIN") = {1};
// End of domain specification

// Start fracture specification
frac_loop_0 = newll; 
Line Loop(frac_loop_0) = { frac_line_0, frac_line_2, frac_line_3, frac_line_4, frac_line_5, frac_line_6, frac_line_7, frac_line_8, frac_line_9, -frac_line_11, frac_line_10, frac_line_12, frac_line_13, frac_line_14, frac_line_15, frac_line_16, frac_line_17, frac_line_18, frac_line_19, frac_line_20, frac_line_21, frac_line_22, frac_line_23, frac_line_24, frac_line_25, -frac_line_1};
fracture_0 = news; Plane Surface(fracture_0) = {frac_loop_0};
Physical Surface("FRACTURE_0") = {fracture_0};
Surface{fracture_0} In Volume{1};

Line{frac_line_131} In Surface{fracture_0};
Line{frac_line_132} In Surface{fracture_0};
Line{frac_line_133} In Surface{fracture_0};
Line{frac_line_134} In Surface{fracture_0};
Line{frac_line_135} In Surface{fracture_0};
Line{frac_line_136} In Surface{fracture_0};

frac_loop_1 = newll; 
Line Loop(frac_loop_1) = { frac_line_26, frac_line_28, -frac_line_30, frac_line_29, frac_line_31, frac_line_32, -frac_line_34, frac_line_33, frac_line_35, frac_line_36, -frac_line_38, frac_line_37, frac_line_39, frac_line_40, frac_line_41, -frac_line_27};
fracture_1 = news; Plane Surface(fracture_1) = {frac_loop_1};
Physical Surface("FRACTURE_1") = {fracture_1};
Surface{fracture_1} In Volume{1};

Line{frac_line_131} In Surface{fracture_1};
Line{frac_line_132} In Surface{fracture_1};
Line{frac_line_137} In Surface{fracture_1};
Line{frac_line_138} In Surface{fracture_1};

frac_loop_2 = newll; 
Line Loop(frac_loop_2) = { frac_line_42, frac_line_44, frac_line_45, frac_line_46, frac_line_47, frac_line_48, frac_line_49, frac_line_50, frac_line_51, frac_line_52, frac_line_53, frac_line_54, -frac_line_43};
fracture_2 = news; Plane Surface(fracture_2) = {frac_loop_2};
Physical Surface("FRACTURE_2") = {fracture_2};
Surface{fracture_2} In Volume{1};

Line{frac_line_133} In Surface{fracture_2};

frac_loop_3 = newll; 
Line Loop(frac_loop_3) = { frac_line_55, frac_line_57, frac_line_58, frac_line_59, frac_line_60, frac_line_61, frac_line_62, -frac_line_64, frac_line_63, frac_line_65, frac_line_66, -frac_line_68, frac_line_67, frac_line_69, -frac_line_71, frac_line_70, frac_line_72, frac_line_73, -frac_line_74, -frac_line_56};
fracture_3 = news; Plane Surface(fracture_3) = {frac_loop_3};
Physical Surface("FRACTURE_3") = {fracture_3};
Surface{fracture_3} In Volume{1};

Line{frac_line_134} In Surface{fracture_3};
Line{frac_line_135} In Surface{fracture_3};
Line{frac_line_137} In Surface{fracture_3};
Line{frac_line_138} In Surface{fracture_3};
Line{frac_line_139} In Surface{fracture_3};

frac_loop_4 = newll; 
Line Loop(frac_loop_4) = { frac_line_75, frac_line_77, frac_line_78, frac_line_79, frac_line_80, frac_line_81, -frac_line_83, frac_line_82, frac_line_84, frac_line_85, frac_line_86, frac_line_87, frac_line_88, -frac_line_90, frac_line_89, frac_line_91, -frac_line_76};
fracture_4 = news; Plane Surface(fracture_4) = {frac_loop_4};
Physical Surface("FRACTURE_4") = {fracture_4};
Surface{fracture_4} In Volume{1};

Line{frac_line_139} In Surface{fracture_4};
Line{frac_line_140} In Surface{fracture_4};

frac_loop_5 = newll; 
Line Loop(frac_loop_5) = { frac_line_92, frac_line_94, frac_line_95, frac_line_96, -frac_line_98, frac_line_97, frac_line_99, -frac_line_101, frac_line_100, -frac_line_103, frac_line_102, frac_line_104, frac_line_105, frac_line_106, -frac_line_107, -frac_line_93};
fracture_5 = news; Plane Surface(fracture_5) = {frac_loop_5};
Physical Surface("FRACTURE_5") = {fracture_5};
Surface{fracture_5} In Volume{1};

Line{frac_line_136} In Surface{fracture_5};
Line{frac_line_140} In Surface{fracture_5};
Line{frac_line_141} In Surface{fracture_5};

frac_loop_6 = newll; 
Line Loop(frac_loop_6) = { frac_line_108, frac_line_110, frac_line_111, frac_line_112, frac_line_113, -frac_line_115, frac_line_114, frac_line_116, frac_line_117, frac_line_118, -frac_line_109};
fracture_6 = news; Plane Surface(fracture_6) = {frac_loop_6};
Physical Surface("FRACTURE_6") = {fracture_6};
Surface{fracture_6} In Volume{1};

Line{frac_line_141} In Surface{fracture_6};

// End of fracture specification

// Start physical point specification
Physical Point("FRACTURE_POINT_0") = {p127};
// End of physical point specification

